<svg width="49" height="48" viewBox="0 0 49 48" fill="none" xmlns="http://www.w3.org/2000/svg">
<rect x="0.199951" width="48" height="48" rx="9" fill="#686868"/>
<circle cx="24.2" cy="24" r="17.6" fill="#F9F9F9"/>
<path d="M30.7332 16.5333H28.8666V15.6C28.8666 15.3524 28.7682 15.115 28.5932 14.94C28.4182 14.765 28.1808 14.6666 27.9332 14.6666C27.6857 14.6666 27.4483 14.765 27.2733 14.94C27.0982 15.115 26.9999 15.3524 26.9999 15.6V16.5333H21.3999V15.6C21.3999 15.3524 21.3016 15.115 21.1265 14.94C20.9515 14.765 20.7141 14.6666 20.4666 14.6666C20.219 14.6666 19.9816 14.765 19.8066 14.94C19.6316 15.115 19.5332 15.3524 19.5332 15.6V16.5333H17.6666C16.924 16.5333 16.2118 16.8283 15.6867 17.3534C15.1616 17.8785 14.8666 18.5907 14.8666 19.3333V30.5333C14.8666 31.2759 15.1616 31.9881 15.6867 32.5132C16.2118 33.0383 16.924 33.3333 17.6666 33.3333H30.7332C31.4758 33.3333 32.188 33.0383 32.7131 32.5132C33.2382 31.9881 33.5332 31.2759 33.5332 30.5333V19.3333C33.5332 18.5907 33.2382 17.8785 32.7131 17.3534C32.188 16.8283 31.4758 16.5333 30.7332 16.5333V16.5333ZM31.6666 30.5333C31.6666 30.7808 31.5682 31.0182 31.3932 31.1933C31.2182 31.3683 30.9808 31.4666 30.7332 31.4666H17.6666C17.419 31.4666 17.1816 31.3683 17.0066 31.1933C16.8316 31.0182 16.7332 30.7808 16.7332 30.5333V24H31.6666V30.5333ZM31.6666 22.1333H16.7332V19.3333C16.7332 19.0858 16.8316 18.8484 17.0066 18.6733C17.1816 18.4983 17.419 18.4 17.6666 18.4H19.5332V19.3333C19.5332 19.5808 19.6316 19.8182 19.8066 19.9933C19.9816 20.1683 20.219 20.2666 20.4666 20.2666C20.7141 20.2666 20.9515 20.1683 21.1265 19.9933C21.3016 19.8182 21.3999 19.5808 21.3999 19.3333V18.4H26.9999V19.3333C26.9999 19.5808 27.0982 19.8182 27.2733 19.9933C27.4483 20.1683 27.6857 20.2666 27.9332 20.2666C28.1808 20.2666 28.4182 20.1683 28.5932 19.9933C28.7682 19.8182 28.8666 19.5808 28.8666 19.3333V18.4H30.7332C30.9808 18.4 31.2182 18.4983 31.3932 18.6733C31.5682 18.8484 31.6666 19.0858 31.6666 19.3333V22.1333Z" fill="#686868"/>
</svg>
