<svg width="48" height="48" viewBox="0 0 48 48" fill="none" xmlns="http://www.w3.org/2000/svg">
<rect width="48" height="48" rx="9" fill="#04BA00"/>
<circle cx="24" cy="24.6" r="17.6" fill="#F9F9F9"/>
<path d="M32.51 21.5861L27.0551 20.7933L24.6166 15.8498C24.55 15.7144 24.4405 15.6049 24.3051 15.5383C23.9657 15.3707 23.5532 15.5103 23.3834 15.8498L20.9449 20.7933L15.4901 21.5861C15.3397 21.6076 15.2022 21.6785 15.0969 21.7859C14.9696 21.9167 14.8995 22.0927 14.9019 22.2752C14.9043 22.4577 14.9791 22.6318 15.1098 22.7592L19.0565 26.607L18.124 32.0404C18.1022 32.1668 18.1162 32.2968 18.1644 32.4156C18.2127 32.5345 18.2933 32.6374 18.397 32.7128C18.5008 32.7882 18.6237 32.833 18.7516 32.8421C18.8796 32.8512 19.0075 32.8243 19.1209 32.7644L24 30.1992L28.8791 32.7644C29.0123 32.8353 29.167 32.859 29.3153 32.8332C29.6891 32.7687 29.9405 32.4142 29.876 32.0404L28.9436 26.607L32.8903 22.7592C32.9977 22.6539 33.0686 22.5164 33.0901 22.366C33.1481 21.99 32.886 21.642 32.51 21.5861V21.5861ZM27.2828 26.0656L28.0584 30.5838L24 28.4525L19.9416 30.5859L20.7172 26.0677L17.4344 22.8666L21.9719 22.207L24 18.097L26.0282 22.207L30.5657 22.8666L27.2828 26.0656Z" fill="#04BA00"/>
</svg>
