<svg width="48" height="48" viewBox="0 0 48 48" fill="none" xmlns="http://www.w3.org/2000/svg">
<rect width="48" height="48" rx="9" fill="#FFB800"/>
<circle cx="24" cy="24.6" r="17.6" fill="#F9F9F9"/>
<path d="M25.7437 22.3525L21.45 22.8906L21.2962 23.6031L22.14 23.7588C22.6912 23.89 22.8 24.0888 22.68 24.6381L21.2962 31.1406C20.9325 32.8225 21.4931 33.6138 22.8112 33.6138C23.8331 33.6138 25.02 33.1413 25.5581 32.4925L25.7231 31.7125C25.3481 32.0425 24.8006 32.1738 24.4368 32.1738C23.9212 32.1738 23.7337 31.8119 23.8668 31.1744L25.7437 22.3525ZM25.875 18.4375C25.875 18.9348 25.6774 19.4117 25.3258 19.7633C24.9742 20.115 24.4973 20.3125 24 20.3125C23.5027 20.3125 23.0258 20.115 22.6741 19.7633C22.3225 19.4117 22.125 18.9348 22.125 18.4375C22.125 17.9402 22.3225 17.4633 22.6741 17.1117C23.0258 16.76 23.5027 16.5625 24 16.5625C24.4973 16.5625 24.9742 16.76 25.3258 17.1117C25.6774 17.4633 25.875 17.9402 25.875 18.4375Z" fill="#FFB800"/>
</svg>
