<svg width="366" height="288" viewBox="0 0 366 288" fill="none" xmlns="http://www.w3.org/2000/svg">
<path d="M333.156 262.914C326.14 270.442 318.1 276.943 309.275 282.224C309.072 282.349 308.866 282.466 308.66 282.587L294.372 269.912C294.522 269.773 294.688 269.616 294.867 269.444C305.513 259.312 358.364 188.474 361.886 171.223C361.643 172.66 365.064 229.019 333.156 262.914Z" fill="#F0F0F0"/>
<path d="M312.031 284.669C311.761 284.734 311.486 284.794 311.211 284.85L300.491 275.341C300.701 275.268 300.946 275.181 301.226 275.084C305.825 273.452 319.523 268.525 333.155 262.913C347.802 256.88 362.379 250.064 365.514 245.698C364.842 246.712 344.126 277.476 312.031 284.669Z" fill="#F0F0F0"/>
<path d="M332.958 75.4264H331.431V33.5146C331.431 30.3291 330.805 27.1748 329.589 24.2318C328.372 21.2887 326.59 18.6146 324.342 16.3621C322.095 14.1096 319.427 12.3228 316.49 11.1037C313.554 9.8847 310.406 9.25726 307.228 9.25726H218.631C215.453 9.25726 212.305 9.88468 209.369 11.1037C206.433 12.3228 203.764 14.1095 201.517 16.362C199.27 18.6145 197.487 21.2886 196.27 24.2317C195.054 27.1747 194.428 30.329 194.428 33.5146V263.446C194.428 266.631 195.054 269.785 196.27 272.729C197.487 275.672 199.269 278.346 201.517 280.598C203.764 282.851 206.433 284.637 209.369 285.856C212.305 287.076 215.453 287.703 218.631 287.703H307.228C310.406 287.703 313.554 287.076 316.49 285.857C319.426 284.637 322.095 282.851 324.342 280.598C326.59 278.346 328.372 275.672 329.589 272.729C330.805 269.786 331.431 266.631 331.431 263.446V105.26H332.958V75.4264Z" fill="#3F3D56"/>
<path d="M326.279 33.6813V263.278C326.279 265.657 325.811 268.012 324.903 270.21C323.994 272.408 322.663 274.405 320.984 276.087C319.305 277.769 317.312 279.102 315.119 280.012C312.926 280.922 310.575 281.39 308.202 281.389H219.178C216.805 281.389 214.455 280.921 212.263 280.011C210.07 279.101 208.078 277.767 206.4 276.085C204.722 274.403 203.391 272.406 202.483 270.209C201.574 268.011 201.107 265.656 201.107 263.278V33.6813C201.107 31.3028 201.574 28.9476 202.483 26.7501C203.391 24.5527 204.722 22.556 206.4 20.8742C208.078 19.1924 210.07 17.8583 212.263 16.9482C214.455 16.0381 216.805 15.5697 219.178 15.5699H229.982C229.451 16.8768 229.25 18.2942 229.394 19.6976C229.539 21.1009 230.025 22.4472 230.81 23.618C231.596 24.7888 232.656 25.7482 233.898 26.4118C235.141 27.0755 236.526 27.4231 237.934 27.424H288.689C290.097 27.4254 291.485 27.0793 292.728 26.4162C293.971 25.7532 295.033 24.7936 295.819 23.6221C296.605 22.4507 297.091 21.1034 297.234 19.6991C297.378 18.2948 297.174 16.8767 296.642 15.5699H308.202C310.575 15.569 312.926 16.0369 315.119 16.9467C317.312 17.8564 319.305 19.1904 320.984 20.8723C322.663 22.5542 323.994 24.551 324.903 26.7488C325.811 28.9467 326.279 31.3023 326.279 33.6813V33.6813Z" fill="white"/>
<path d="M298.587 152.992H220.338C218.968 152.99 217.654 152.444 216.684 151.473C215.715 150.501 215.17 149.184 215.169 147.811V145.232C215.17 143.858 215.715 142.541 216.684 141.57C217.654 140.599 218.968 140.052 220.338 140.051H298.587C299.958 140.052 301.272 140.599 302.241 141.57C303.21 142.541 303.755 143.858 303.757 145.232V147.811C303.755 149.184 303.21 150.501 302.241 151.473C301.272 152.444 299.958 152.99 298.587 152.992Z" fill="#F0F0F0"/>
<path d="M298.587 175.222H220.338C218.968 175.221 217.654 174.675 216.684 173.703C215.715 172.732 215.17 171.415 215.169 170.041V167.462C215.17 166.089 215.715 164.772 216.684 163.801C217.654 162.829 218.968 162.283 220.338 162.281H298.587C299.958 162.283 301.272 162.829 302.241 163.801C303.21 164.772 303.755 166.089 303.757 167.462V170.041C303.755 171.415 303.21 172.732 302.241 173.703C301.272 174.675 299.958 175.221 298.587 175.222V175.222Z" fill="#F0F0F0"/>
<path d="M302.501 148.02H224.252C222.813 148.018 221.434 147.445 220.416 146.425C219.398 145.405 218.826 144.022 218.824 142.58V140.001C218.826 138.559 219.398 137.176 220.416 136.156C221.434 135.136 222.813 134.562 224.252 134.561H302.501C303.94 134.562 305.32 135.136 306.338 136.156C307.355 137.176 307.928 138.559 307.929 140.001V142.58C307.928 144.022 307.355 145.405 306.338 146.425C305.32 147.445 303.94 148.018 302.501 148.02V148.02ZM224.252 135.597C223.087 135.598 221.97 136.063 221.147 136.888C220.323 137.714 219.86 138.833 219.858 140.001V142.58C219.86 143.747 220.323 144.867 221.147 145.692C221.97 146.518 223.087 146.982 224.252 146.984H302.501C303.666 146.982 304.783 146.518 305.607 145.692C306.431 144.867 306.894 143.747 306.895 142.58V140.001C306.894 138.833 306.431 137.714 305.607 136.888C304.783 136.063 303.666 135.598 302.501 135.597H224.252Z" fill="#3F3D56"/>
<path d="M302.501 170.251H224.252C222.813 170.249 221.434 169.675 220.416 168.655C219.398 167.636 218.826 166.253 218.824 164.81V162.232C218.826 160.789 219.398 159.406 220.416 158.387C221.434 157.367 222.813 156.793 224.252 156.791H302.501C303.94 156.793 305.32 157.367 306.338 158.387C307.355 159.406 307.928 160.789 307.929 162.232V164.81C307.928 166.253 307.355 167.636 306.338 168.655C305.32 169.675 303.94 170.249 302.501 170.251V170.251ZM224.252 157.828C223.087 157.829 221.97 158.293 221.147 159.119C220.323 159.945 219.86 161.064 219.858 162.232V164.81C219.86 165.978 220.323 167.097 221.147 167.923C221.97 168.749 223.087 169.213 224.252 169.214H302.501C303.666 169.213 304.783 168.749 305.607 167.923C306.431 167.097 306.894 165.978 306.895 164.81V162.232C306.894 161.064 306.431 159.945 305.607 159.119C304.783 158.293 303.666 157.829 302.501 157.828H224.252Z" fill="#3F3D56"/>
<path d="M326.279 33.6813V83.6217C318.361 85.7094 310.072 85.9489 302.047 84.3218C294.023 82.6948 286.478 79.2445 279.992 74.2364C273.507 69.2283 268.255 62.7959 264.639 55.4342C261.023 48.0724 259.141 39.9774 259.136 31.7721C259.136 30.3075 259.195 28.8581 259.313 27.424H288.689C290.097 27.4254 291.485 27.0793 292.728 26.4162C293.971 25.7532 295.033 24.7936 295.819 23.6221C296.605 22.4507 297.091 21.1034 297.234 19.6991C297.378 18.2948 297.174 16.8767 296.642 15.5699H308.202C310.575 15.569 312.926 16.0369 315.119 16.9467C317.312 17.8564 319.305 19.1904 320.984 20.8723C322.663 22.5542 323.994 24.551 324.903 26.7489C325.811 28.9467 326.279 31.3023 326.279 33.6813V33.6813Z" fill="#F0F0F0"/>
<path d="M246.089 278.27C246.089 279.323 246.05 280.363 245.965 281.389H219.178C216.805 281.389 214.455 280.921 212.263 280.011C210.07 279.101 208.078 277.767 206.4 276.085C204.722 274.403 203.391 272.406 202.483 270.209C201.574 268.011 201.107 265.656 201.107 263.278V238.719C206.722 237.987 212.428 238.463 217.845 240.116C223.262 241.768 228.265 244.558 232.522 248.3C236.778 252.043 240.19 256.651 242.529 261.819C244.868 266.987 246.082 272.595 246.089 278.27H246.089Z" fill="#6C63FF"/>
<path d="M30.0458 235.179C30.7984 235.511 31.6517 235.53 32.4184 235.232C33.185 234.934 33.8025 234.344 34.1353 233.59L58.2662 178.778C58.8185 177.523 58.9873 176.133 58.7511 174.782C58.515 173.432 57.8846 172.182 56.9396 171.191C55.9946 170.199 54.7775 169.511 53.4423 169.213C52.107 168.915 50.7135 169.02 49.438 169.516H49.438C47.9644 170.08 46.7313 171.138 45.9485 172.511C45.824 172.728 45.7111 172.951 45.6102 173.181L21.4794 227.993C21.3149 228.367 21.2255 228.769 21.2161 229.177C21.2068 229.586 21.2778 229.992 21.4251 230.372C21.5723 230.753 21.7929 231.101 22.0743 231.396C22.3557 231.691 22.6924 231.928 23.065 232.093L30.0458 235.179Z" fill="#6C63FF"/>
<path d="M57.2756 201.281L33.4071 195.965L39.3148 180.301C40.3212 176.473 42.6633 173.133 45.9164 170.887C49.1694 168.641 53.1179 167.637 57.0456 168.059L57.2756 168.085L57.2756 201.281Z" fill="#2F2E41"/>
<path d="M105.486 235.963C104.784 235.962 104.097 235.757 103.509 235.373C102.921 234.989 102.456 234.443 102.171 233.799L78.0407 178.987C77.2733 177.243 77.2019 175.27 77.8413 173.475C78.4808 171.68 79.7823 170.199 81.4782 169.336C83.1741 168.473 85.1354 168.295 86.9585 168.838C88.7817 169.38 90.328 170.602 91.2794 172.253V172.252C91.4132 172.486 91.5344 172.726 91.6427 172.972L115.773 227.785C116.161 228.665 116.184 229.663 115.837 230.56C115.49 231.456 114.802 232.178 113.923 232.567L106.706 235.758L106.702 235.75C106.312 235.891 105.901 235.963 105.486 235.963V235.963Z" fill="#6C63FF"/>
<path d="M72.1069 217.141C71.2846 217.142 70.4962 217.47 69.9147 218.053C69.3332 218.635 69.0062 219.425 69.0052 220.25V283.984C69.0062 284.809 69.3332 285.599 69.9147 286.182C70.4962 286.764 71.2846 287.092 72.1069 287.093H79.7369C80.5592 287.092 81.3476 286.764 81.9291 286.182C82.5106 285.599 82.8377 284.809 82.8386 283.984V220.25C82.8377 219.425 82.5106 218.635 81.9291 218.053C81.3476 217.47 80.5592 217.142 79.7369 217.141H72.1069Z" fill="#6C63FF"/>
<path d="M57.0159 217.141C56.1935 217.142 55.4051 217.47 54.8237 218.053C54.2422 218.635 53.9151 219.425 53.9142 220.25V283.984C53.9151 284.809 54.2422 285.599 54.8237 286.182C55.4051 286.764 56.1935 287.092 57.0159 287.093H64.6459C65.4683 287.092 66.2567 286.764 66.8381 286.182C67.4196 285.599 67.7467 284.809 67.7476 283.984V220.25C67.7467 219.425 67.4196 218.635 66.8381 218.053C66.2567 217.47 65.4683 217.142 64.6459 217.141H57.0159Z" fill="#6C63FF"/>
<path d="M68.1485 150.368C82.7091 150.368 94.5129 138.538 94.5129 123.944C94.5129 109.351 82.7091 97.5206 68.1485 97.5206C53.5878 97.5206 41.7841 109.351 41.7841 123.944C41.7841 138.538 53.5878 150.368 68.1485 150.368Z" fill="#6C63FF"/>
<path d="M76.9219 135.036C78.6309 134.989 80.7579 134.929 82.3964 133.73C82.8844 133.358 83.2853 132.884 83.571 132.34C83.8568 131.797 84.0205 131.197 84.0507 130.583C84.0804 130.147 84.009 129.71 83.8421 129.306C83.6753 128.903 83.4175 128.543 83.089 128.255C82.2332 127.531 80.9835 127.361 79.6367 127.757L81.0321 117.537L80.0078 117.397L78.3674 129.412L79.2227 129.018C80.2144 128.562 81.5757 128.33 82.4216 129.047C82.6293 129.234 82.7912 129.467 82.8945 129.727C82.9979 129.987 83.04 130.268 83.0175 130.547C82.9924 131.004 82.8695 131.45 82.6571 131.854C82.4447 132.259 82.1478 132.613 81.7865 132.893C80.5114 133.826 78.816 133.947 76.8932 134.001L76.9219 135.036Z" fill="#2F2E41"/>
<path d="M91.6662 118.419H86.0978V119.455H91.6662V118.419Z" fill="#2F2E41"/>
<path d="M74.0899 118.419H68.5215V119.455H74.0899V118.419Z" fill="#2F2E41"/>
<path d="M94.2717 236.285L84.7825 166.859C84.6808 166.114 84.3134 165.432 83.7484 164.938C83.1835 164.444 82.4591 164.172 81.7094 164.172H74.5468C74.5767 164.001 74.5922 163.827 74.5933 163.654V161.063C74.5933 160.239 74.2665 159.448 73.6848 158.865C73.1031 158.282 72.3142 157.955 71.4916 157.955H65.2882C64.4656 157.955 63.6767 158.282 63.095 158.865C62.5133 159.448 62.1865 160.239 62.1865 161.063V163.654C62.1876 163.827 62.2031 164.001 62.2329 164.172H55.0704C54.3207 164.172 53.5963 164.444 53.0313 164.938C52.4664 165.432 52.099 166.114 51.9972 166.859L42.5081 236.285C42.448 236.725 42.4825 237.173 42.6094 237.598C42.7363 238.023 42.9526 238.416 43.2437 238.751C43.5348 239.085 43.8941 239.353 44.2972 239.537C44.7004 239.721 45.1381 239.816 45.581 239.816H91.1987C91.6416 239.816 92.0793 239.721 92.4825 239.537C92.8857 239.353 93.2449 239.085 93.536 238.751C93.8272 238.416 94.0434 238.023 94.1703 237.598C94.2972 237.173 94.3318 236.725 94.2717 236.285V236.285Z" fill="#2F2E41"/>
<path d="M79.5044 201.281V168.085L79.7343 168.059C83.6669 167.638 87.6198 168.644 90.8749 170.896C94.13 173.147 96.4714 176.494 97.4737 180.328L103.373 195.965L79.5044 201.281Z" fill="#2F2E41"/>
<path d="M66.8207 151.192L48.5851 144.098C45.6032 142.938 42.6047 141.814 39.6385 140.614C38.368 140.17 37.1976 139.479 36.1949 138.58C35.3218 137.653 34.7268 136.499 34.478 135.25C33.8456 132.57 33.9599 129.641 34.005 126.907C34.04 123.916 34.2856 120.931 34.74 117.974C35.5363 112.419 37.4065 107.072 40.2456 102.234C45.3597 93.8242 54.1708 87.497 64.306 88.002C68.9981 88.2358 73.7173 89.9233 77.2035 93.1385C77.5672 93.5741 77.9752 93.9704 78.4209 94.3211C78.7308 94.4376 79.068 94.4602 79.3906 94.3863C79.816 94.3589 80.2418 94.338 80.6679 94.3235C82.1465 94.261 83.6277 94.3233 85.0958 94.5097C87.7714 94.7994 90.3072 95.8547 92.4005 97.5496C94.1427 99.0516 95.5603 101.172 95.7061 103.528C95.7766 104.61 95.5981 105.694 95.1845 106.695C94.7709 107.697 94.1333 108.59 93.3208 109.306C91.1452 111.143 88.0411 110.497 85.4314 110.359L75.8711 109.851L71.0272 109.594C70.0298 109.541 70.0327 111.096 71.0272 111.148L83.9018 111.832C85.9707 111.942 88.103 112.211 90.1736 112.087C91.7646 112.015 93.2838 111.402 94.4815 110.35C95.5753 109.343 96.39 108.069 96.8463 106.652C97.3026 105.236 97.3849 103.725 97.0851 102.267C96.4214 99.0869 94.06 96.4563 91.2919 94.8914C87.5253 92.7621 83.0269 92.5581 78.8123 92.8729L79.3606 93.1005C74.5932 87.9722 67.2906 85.8069 60.435 86.5647C53.1965 87.3647 46.7585 91.412 42.1329 96.9463C36.9756 103.117 34.1651 110.811 33.0726 118.722C32.504 122.994 32.3168 127.308 32.5132 131.613C32.5051 133.511 32.8292 135.397 33.4707 137.183C34.2027 138.922 35.5262 140.344 37.2058 141.196C39.1314 142.128 41.111 142.943 43.1341 143.637L49.8525 146.251L63.0493 151.384L66.4085 152.691C67.3394 153.053 67.7427 151.551 66.8207 151.192Z" fill="#2F2E41"/>
<path d="M38.1485 98.3721C36.5637 98.3721 35.0145 97.9011 33.6968 97.0187C32.3791 96.1362 31.3521 94.882 30.7457 93.4146C30.1392 91.9472 29.9805 90.3325 30.2897 88.7747C30.5989 87.2169 31.362 85.7859 32.4826 84.6628C33.6032 83.5397 35.0309 82.7748 36.5853 82.465C38.1396 82.1551 39.7507 82.3142 41.2148 82.922C42.6789 83.5298 43.9303 84.5591 44.8108 85.8798C45.6912 87.2004 46.1612 88.753 46.1612 90.3414C46.1588 92.4705 45.3138 94.5118 43.8117 96.0173C42.3095 97.5228 40.2728 98.3697 38.1485 98.3721ZM38.1485 83.865C36.8704 83.865 35.6211 84.2448 34.5584 84.9565C33.4958 85.6681 32.6676 86.6796 32.1785 87.863C31.6894 89.0464 31.5614 90.3486 31.8108 91.6048C32.0601 92.8611 32.6755 94.0151 33.5792 94.9209C34.4829 95.8266 35.6343 96.4434 36.8878 96.6933C38.1413 96.9432 39.4406 96.8149 40.6213 96.3247C41.8021 95.8346 42.8113 95.0045 43.5213 93.9395C44.2313 92.8744 44.6103 91.6223 44.6103 90.3414C44.6084 88.6243 43.927 86.9782 42.7156 85.764C41.5041 84.5499 39.8617 83.8669 38.1485 83.865V83.865Z" fill="#2F2E41"/>
<path d="M172.092 148.139L154.749 134.845L141.484 152.227L158.828 165.521L172.092 148.139Z" fill="#F0F0F0"/>
<path d="M74.0764 29.4635C76.8166 29.4614 79.5193 30.1023 81.9679 31.3351C84.4166 32.5679 86.5432 34.3582 88.1774 36.5627L98.3043 23.292L67.9187 0L44.679 30.4539L57.7751 40.4927C59.0856 37.2351 61.3379 34.4445 64.2426 32.4792C67.1473 30.5139 70.5718 29.4638 74.0764 29.4635V29.4635Z" fill="#F0F0F0"/>
<path d="M365.483 288H0.516949C0.379846 288 0.248357 287.945 0.151411 287.848C0.0544637 287.751 0 287.619 0 287.482C0 287.344 0.0544637 287.213 0.151411 287.116C0.248357 287.018 0.379846 286.964 0.516949 286.964H365.483C365.62 286.964 365.752 287.018 365.849 287.116C365.946 287.213 366 287.344 366 287.482C366 287.619 365.946 287.751 365.849 287.848C365.752 287.945 365.62 288 365.483 288Z" fill="#3F3D56"/>
<path d="M276.406 202.03H239.257C237.887 202.028 236.573 201.482 235.603 200.511C234.634 199.539 234.089 198.222 234.088 196.849V194.27C234.089 192.896 234.634 191.579 235.603 190.608C236.573 189.637 237.887 189.09 239.257 189.089H276.406C277.777 189.09 279.091 189.637 280.06 190.608C281.029 191.579 281.574 192.896 281.576 194.27V196.849C281.574 198.222 281.029 199.539 280.06 200.511C279.091 201.482 277.777 202.028 276.406 202.03V202.03Z" fill="#6C63FF"/>
<path d="M280.321 197.058H243.171C241.732 197.057 240.353 196.483 239.335 195.463C238.317 194.443 237.745 193.06 237.743 191.618V189.039C237.745 187.597 238.317 186.214 239.335 185.194C240.353 184.174 241.732 183.601 243.171 183.599H280.321C281.76 183.601 283.139 184.174 284.157 185.194C285.174 186.214 285.747 187.597 285.749 189.039V191.618C285.747 193.06 285.174 194.443 284.157 195.463C283.139 196.483 281.76 197.057 280.321 197.058V197.058ZM243.171 184.635C242.006 184.637 240.89 185.101 240.066 185.927C239.242 186.752 238.779 187.872 238.777 189.039V191.618C238.779 192.786 239.242 193.905 240.066 194.731C240.89 195.556 242.006 196.021 243.171 196.022H280.321C281.486 196.021 282.602 195.556 283.426 194.731C284.25 193.905 284.713 192.786 284.715 191.618V189.039C284.713 187.872 284.25 186.752 283.426 185.927C282.602 185.101 281.486 184.637 280.321 184.635H243.171Z" fill="#3F3D56"/>
</svg>
