<svg id="Layer_1" data-name="Layer 1" xmlns="http://www.w3.org/2000/svg" viewBox="0 0 681.04 903.31"><defs><style>.cls-1,.cls-2{fill:#6c63ff;}.cls-2{font-size:131.26px;font-family:Poppins-Regular, Poppins;}.cls-3{font-family:Poppins-Bold, Poppins;font-weight:700;}</style></defs><path class="cls-1" d="M597.11,143.52H375.49L362.41,87.79A45.68,45.68,0,1,0,322,87.61l-12.77,55.91H87.66a85.89,85.89,0,0,0-85.8,85.79V439.87a85.9,85.9,0,0,0,85.8,85.8H597.11a85.89,85.89,0,0,0,85.79-85.8V229.31A85.88,85.88,0,0,0,597.11,143.52Zm26.14,296.35A26.17,26.17,0,0,1,597.11,466H87.66a26.17,26.17,0,0,1-26.15-26.14V229.31a26.18,26.18,0,0,1,26.15-26.14H597.11a26.17,26.17,0,0,1,26.14,26.14Z" transform="translate(-1.86 -1.03)"/><path class="cls-1" d="M208,284.81a77.29,77.29,0,0,0-77.2,77.2,22.37,22.37,0,0,0,44.74,0,32.46,32.46,0,0,1,64.92,0,22.37,22.37,0,1,0,44.73,0A77.28,77.28,0,0,0,208,284.81Z" transform="translate(-1.86 -1.03)"/><path class="cls-1" d="M476.79,284.81a77.29,77.29,0,0,0-77.2,77.2,22.37,22.37,0,0,0,44.74,0,32.46,32.46,0,1,1,64.92,0A22.37,22.37,0,0,0,554,362,77.29,77.29,0,0,0,476.79,284.81Z" transform="translate(-1.86 -1.03)"/><path class="cls-1" d="M429,560.44l-42.21,24.37-42.21,24.37a16.43,16.43,0,0,0-2.09,1.44,17.35,17.35,0,0,0-2.39-1.69l-42.2-24.37-42.21-24.37a16.57,16.57,0,0,0-24.86,14.35V672a16.57,16.57,0,0,0,24.86,14.35L297.94,662l42.2-24.37a15.86,15.86,0,0,0,2.1-1.44,17.3,17.3,0,0,0,2.38,1.7l42.21,24.37L429,686.62a16.57,16.57,0,0,0,24.86-14.35V574.8A16.58,16.58,0,0,0,429,560.44Z" transform="translate(-1.86 -1.03)"/><text class="cls-2" transform="translate(18.81 823.77)">Virtual <tspan class="cls-3" x="457.82" y="0">CR</tspan></text></svg>