<svg width="48" height="48" viewBox="0 0 48 48" fill="none" xmlns="http://www.w3.org/2000/svg">
<rect width="48" height="48" rx="9" fill="#4C53FC"/>
<circle cx="24" cy="24" r="17.6" fill="#F9F9F9"/>
<path d="M30.816 26.5681L29.376 25.1201V21.552C29.3952 20.2271 28.9343 18.94 28.0785 17.9283C27.2227 16.9167 26.0298 16.2488 24.72 16.048C23.9599 15.9479 23.1871 16.0111 22.4533 16.2333C21.7195 16.4555 21.0415 16.8317 20.4646 17.3367C19.8877 17.8417 19.4251 18.4639 19.1077 19.1618C18.7903 19.8597 18.6254 20.6173 18.624 21.384V25.1201L17.184 26.5681C17.0031 26.7519 16.8805 26.9851 16.8314 27.2383C16.7823 27.4915 16.8089 27.7536 16.9079 27.9918C17.0069 28.2299 17.174 28.4336 17.3881 28.5774C17.6023 28.7212 17.8541 28.7986 18.112 28.8001H20.8V29.0721C20.8374 29.8842 21.1952 30.6484 21.795 31.1973C22.3948 31.7461 23.1877 32.0348 24 32.0001C24.8123 32.0348 25.6052 31.7461 26.205 31.1973C26.8049 30.6484 27.1626 29.8842 27.2 29.0721V28.8001H29.888C30.1459 28.7986 30.3977 28.7212 30.6119 28.5774C30.8261 28.4336 30.9931 28.2299 31.0921 27.9918C31.1911 27.7536 31.2178 27.4915 31.1687 27.2383C31.1195 26.9851 30.9969 26.7519 30.816 26.5681V26.5681ZM25.6 29.0721C25.5556 29.4569 25.3645 29.8097 25.0665 30.0571C24.7684 30.3045 24.3864 30.4273 24 30.4001C23.6136 30.4273 23.2316 30.3045 22.9336 30.0571C22.6355 29.8097 22.4444 29.4569 22.4 29.0721V28.8001H25.6V29.0721ZM18.808 27.2001L19.752 26.2561C19.9017 26.1072 20.0205 25.9302 20.1015 25.7352C20.1826 25.5403 20.2242 25.3312 20.224 25.1201V21.384C20.2244 20.8444 20.3403 20.311 20.5638 19.8198C20.7874 19.3286 21.1134 18.8909 21.52 18.5361C21.9211 18.1726 22.3965 17.9006 22.9131 17.739C23.4297 17.5774 23.9753 17.53 24.512 17.6C25.4372 17.7503 26.277 18.2297 26.8767 18.95C27.4765 19.6702 27.7958 20.583 27.776 21.52V25.1201C27.7748 25.3306 27.8152 25.5394 27.8948 25.7343C27.9744 25.9292 28.0917 26.1065 28.24 26.2561L29.192 27.2001H18.808Z" fill="#4C53FC"/>
</svg>
